<?xml version="1.0" encoding="utf-8"?>

<!DOCTYPE svg PUBLIC "-//W3C//DTD SVG 1.1//EN" "http://www.w3.org/Graphics/SVG/1.1/DTD/svg11.dtd">
<svg version="1.1" id="Layer_1" xmlns="http://www.w3.org/2000/svg" xmlns:xlink="http://www.w3.org/1999/xlink" x="0px" y="0px"
	 viewBox="0 0 1698 1680.717" enable-background="new 0 0 1698 1680.717" xml:space="preserve">
<path fill="none" stroke="#ffffff" stroke-width="2" stroke-miterlimit="10" d="M849,40.404
	c655.128,1305.299-815.372,873.521,441.454,129.622c-154.569,1452.276-1158.196,294.029,301.295,347.713
	c-915.192,1138.166-1133.301-378.815,65.478,455.407c-1385.247,462.696-748.59-931.388-191.129,418.513
	C50.602,1031.983,1339.89,203.408,1079.045,1640.404c-996.335-1067.854,536.245-1067.854-460.091,0
	C358.11,203.408,1647.398,1031.983,231.902,1391.66C789.364,41.759,1426.021,1435.843,40.773,973.147
	c1198.778-834.223,980.669,682.758,65.478-455.407c1459.491-53.684,455.865,1104.563,301.295-347.713
	C1664.372,913.925,193.872,1345.702,849,40.404z"/>
</svg>
