<svg width="19" height="19" viewBox="0 0 19 19" fill="none" xmlns="http://www.w3.org/2000/svg">
<path d="M3.77551 3.95399H5.95501C6.15392 3.95399 6.34469 4.033 6.48534 4.17366C6.62599 4.31431 6.70501 4.50507 6.70501 4.70398C6.70501 4.9029 6.62599 5.09366 6.48534 5.23431C6.34469 5.37497 6.15392 5.45398 5.95501 5.45398H2.46001C2.2611 5.45398 2.07033 5.37497 1.92968 5.23431C1.78903 5.09366 1.71001 4.9029 1.71001 4.70398V1.21199C1.71001 1.01308 1.78903 0.822311 1.92968 0.681659C2.07033 0.541007 2.2611 0.46199 2.46001 0.46199C2.65892 0.46199 2.84969 0.541007 2.99034 0.681659C3.13099 0.822311 3.21001 1.01308 3.21001 1.21199V2.39699C4.49705 1.21417 6.10068 0.431747 7.82506 0.145278C9.54943 -0.141192 11.3199 0.0806912 12.9203 0.783828C14.5206 1.48696 15.8816 2.64092 16.8369 4.10476C17.7923 5.5686 18.3007 7.27897 18.3 9.02698C18.3 11.4137 17.352 13.7026 15.6645 15.3904C13.977 17.0782 11.6882 18.0266 9.30151 18.027C6.91456 18.027 4.62538 17.0788 2.93755 15.3909C1.24972 13.7031 0.301514 11.4139 0.301514 9.02698H1.80151C1.80151 11.0161 2.59169 12.9238 3.99821 14.3303C5.40473 15.7368 7.31239 16.527 9.30151 16.527C11.2906 16.527 13.1983 15.7368 14.6048 14.3303C16.0113 12.9238 16.8015 11.0161 16.8015 9.02698C16.8016 7.51633 16.3455 6.04086 15.493 4.79378C14.6404 3.54669 13.4312 2.58612 12.0235 2.03785C10.6159 1.48958 9.0755 1.37917 7.60406 1.72107C6.13261 2.06297 4.79871 2.84124 3.77701 3.95399H3.77551Z" fill="white"/>
</svg>
